<?xml version="1.0" encoding="UTF-8"?>
<svg width="40px" height="40px" viewBox="0 0 40 40" version="1.1" xmlns="http://www.w3.org/2000/svg">
    <title>KittyPaw Logo</title>
    <g stroke="none" fill="none">
        <circle fill="#FFFFFF" cx="20" cy="20" r="20"></circle>
        <path d="M10,18 C12,13 15,12 18,15 C19,13 22,13 23,15 C26,12 29,13 31,18 C33,24 31,29 27,31 C24,33 17,33 14,31 C10,29 8,24 10,18 Z" fill="#FF5F6D"></path>
        <circle fill="#FFFFFF" cx="16" cy="19" r="2"></circle>
        <circle fill="#FFFFFF" cx="24" cy="19" r="2"></circle>
        <path d="M18,23 C19,25 21,25 22,23" stroke="#FFFFFF" stroke-width="1.5" stroke-linecap="round"></path>
        <path d="M12,16 C11,14 10,14 8,16" stroke="#FF5F6D" stroke-width="1.5" stroke-linecap="round"></path>
        <path d="M28,16 C29,14 30,14 32,16" stroke="#FF5F6D" stroke-width="1.5" stroke-linecap="round"></path>
    </g>
</svg>